<?xml version="1.0" encoding="utf-8"?>
<!-- Generator: Adobe Illustrator 16.0.4, SVG Export Plug-In . SVG Version: 6.00 Build 0)  -->
<!DOCTYPE svg PUBLIC "-//W3C//DTD SVG 1.1//EN" "http://www.w3.org/Graphics/SVG/1.1/DTD/svg11.dtd">
<svg version="1.1" id="Layer_1" xmlns="http://www.w3.org/2000/svg" xmlns:xlink="http://www.w3.org/1999/xlink" x="0px" y="0px"
	 width="401.515px" height="103.118px" viewBox="0 0 401.515 103.118" enable-background="new 0 0 401.515 103.118"
	 xml:space="preserve">
<g>
	<polygon fill="#FFFFFF" points="101.089,101.089 73.872,101.089 71.928,103.034 56.375,103.034 54.431,101.089 1.944,101.089 
		1.944,1.944 13.606,1.944 15.552,0 31.103,0 33.046,1.944 101.089,1.944 	"/>
	<g>
		<path fill="#ED263D" d="M55.083,47.087l-23.346,8.497c-0.38,0.139-0.634,0.5-0.634,0.905v15.236c0,0.669,0.665,1.134,1.293,0.905
			l21.428-7.799c1.532-0.558,2.552-2.014,2.552-3.645V47.993C56.376,47.324,55.712,46.858,55.083,47.087z"/>
		<path fill="#ED263D" d="M56.376,78.385L27.283,88.974c-5.701,2.075-11.731-2.146-11.731-8.214V0.084H0v103.033h56.376V78.385z"/>
		<path fill="#ED263D" d="M31.104,0.084v35.709c0,2.692,2.676,4.566,5.206,3.645l23.888-8.694c5.701-2.075,11.73,2.146,11.73,8.214
			v64.159h31.104V0.084H31.104z"/>
	</g>
</g>
<g>
	<path fill="#FFFFFF" d="M144.563,46.919c0.862-0.184,3.079-0.492,4.864-0.492V13.423c-1.786,0-4.002-0.308-4.864-0.493V9.421
		h16.379c7.635,0,13.546,2.709,13.546,10.098c0,4.926-2.895,8.127-7.389,9.298v0.123c5.049,0.863,9.174,4.187,9.174,9.914
		c0,8.252-6.342,11.576-15.517,11.576h-16.194V46.919z M154.908,27.093h5.418c5.973,0,8.558-2.401,8.558-6.958
		c0-4.495-2.956-6.527-8.435-6.527h-5.542V27.093z M154.908,46.181h5.665c6.834,0,9.975-2.339,9.975-7.389
		c0-4.802-2.833-7.697-9.667-7.697h-5.973V46.181z"/>
	<path fill="#FFFFFF" d="M180.345,36.021c0-9.79,5.787-15.947,14.039-15.947c7.265,0,11.514,4.988,11.514,12.808
		c0,0.739-0.062,2.216-0.123,2.895h-19.828c0.062,6.957,3.386,11.206,9.606,11.206c3.326,0,6.219-1.54,7.573-2.525l1.909,3.694
		c-1.538,1.047-4.926,3.018-10.405,3.018C185.393,51.168,180.345,44.827,180.345,36.021z M200.479,32.02
		c0-4.373-1.724-8.005-6.588-8.005c-4.372,0-7.266,3.141-7.759,8.005H200.479z"/>
	<path fill="#FFFFFF" d="M208.857,46.919c0.863-0.184,3.018-0.492,4.804-0.492V24.63c-1.971-0.185-3.879-0.246-4.804-0.246v-3.448
		c1.664-0.246,5.851-0.493,10.16-0.493l-0.246,5.418h0.124c1.107-2.587,3.816-5.789,7.757-5.789c1.909,0,2.895,0.431,3.326,0.617
		l-1.293,4.864c-0.369-0.184-1.17-0.555-2.71-0.555c-4.002,0-6.649,4.373-7.143,5.358v16.07c1.786,0,4.558,0.308,5.419,0.492v3.51
		h-15.395V46.919z"/>
	<path fill="#FFFFFF" d="M229.305,46.919c0.863-0.184,2.955-0.492,4.741-0.492V10.16c-1.97-0.185-3.878-0.246-4.802-0.246v-3.51
		c1.723-0.185,5.911-0.492,10.282-0.492l-0.308,4.864v35.651c1.724,0,3.325,0.308,4.187,0.492v3.51h-14.101V46.919z M238.837,35.621
		l10.664-10.868c-1.478-0.123-3.016-0.308-3.633-0.493v-3.448h14.039v3.448c-0.801,0.185-2.771,0.432-4.556,0.493l-16.301,16.055
		L238.837,35.621z"/>
	<path fill="#FFFFFF" d="M264.203,46.919c0.862-0.184,2.955-0.492,4.741-0.492V10.16c-1.971-0.185-3.879-0.246-4.804-0.246v-3.51
		c1.726-0.185,5.911-0.492,10.284-0.492l-0.309,4.864v35.651c1.786,0,3.879,0.308,4.742,0.492v3.51h-14.655V46.919z"/>
	<path fill="#FFFFFF" d="M279.847,36.021c0-9.79,5.787-15.947,14.039-15.947c7.265,0,11.514,4.988,11.514,12.808
		c0,0.739-0.062,2.216-0.123,2.895h-19.827c0.062,6.957,3.386,11.206,9.605,11.206c3.326,0,6.22-1.54,7.573-2.525l1.908,3.694
		c-1.538,1.047-4.926,3.018-10.404,3.018C284.895,51.168,279.847,44.827,279.847,36.021z M299.98,32.02
		c0-4.373-1.724-8.005-6.588-8.005c-4.371,0-7.267,3.141-7.759,8.005H299.98z"/>
	<path fill="#FFFFFF" d="M308.607,36.021c0-9.79,5.787-15.947,14.039-15.947c7.265,0,11.514,4.988,11.514,12.808
		c0,0.739-0.062,2.216-0.123,2.895H314.21c0.062,6.957,3.386,11.206,9.605,11.206c3.326,0,6.22-1.54,7.573-2.525l1.908,3.694
		c-1.538,1.047-4.926,3.018-10.404,3.018C313.655,51.168,308.607,44.827,308.607,36.021z M328.741,32.02
		c0-4.373-1.724-8.005-6.588-8.005c-4.371,0-7.267,3.141-7.759,8.005H328.741z"/>
	<path fill="#FFFFFF" d="M246.764,32.357l5.474,8.575c1.215,1.885,2.492,3.647,3.587,4.621c1.337,1.215,2.701,1.144,4.101,1.144
		c0.363,0,0.973,0,1.52-0.121l0.276,3.731c-0.79,0.183-2.128,0.365-3.04,0.365c-2.919,0-4.812-0.707-6.332-2.044
		c-1.094-0.973-2.371-2.736-3.405-4.378l-5.715-8.999L246.764,32.357z"/>
	<path fill="#FFFFFF" d="M261.721,50.308"/>
</g>
<g>
	<path fill="#FFFFFF" d="M147.357,66.216h2.376v23.328h11.88v2.16h-14.256V66.216z"/>
	<path fill="#FFFFFF" d="M179.433,88.573c-0.84,1.272-1.878,2.184-3.114,2.735c-1.236,0.553-2.598,0.828-4.086,0.828
		c-1.272,0-2.424-0.216-3.456-0.647c-1.032-0.433-1.92-1.038-2.664-1.818c-0.744-0.779-1.314-1.704-1.71-2.771
		c-0.396-1.068-0.594-2.25-0.594-3.546c0-1.248,0.204-2.4,0.612-3.456c0.408-1.057,0.984-1.975,1.728-2.754
		c0.744-0.78,1.62-1.393,2.628-1.837c1.008-0.443,2.124-0.666,3.348-0.666c1.272,0,2.394,0.223,3.366,0.666
		c0.972,0.444,1.788,1.032,2.448,1.765c0.66,0.732,1.157,1.565,1.494,2.502c0.336,0.936,0.504,1.884,0.504,2.844v1.512h-13.968
		c0,0.457,0.09,1.039,0.27,1.746c0.18,0.708,0.51,1.398,0.99,2.07s1.122,1.248,1.926,1.728c0.804,0.48,1.842,0.721,3.114,0.721
		c1.104,0,2.172-0.264,3.204-0.792c1.032-0.528,1.824-1.248,2.376-2.16L179.433,88.573z M177.777,81.985
		c0-0.744-0.15-1.44-0.45-2.088c-0.3-0.648-0.708-1.218-1.224-1.71s-1.128-0.883-1.836-1.171c-0.708-0.287-1.458-0.432-2.25-0.432
		c-1.176,0-2.154,0.24-2.934,0.72c-0.78,0.48-1.398,1.032-1.854,1.656c-0.456,0.625-0.78,1.23-0.972,1.818
		c-0.192,0.588-0.288,0.99-0.288,1.206H177.777z"/>
	<path fill="#FFFFFF" d="M197.685,84.72c0,0.816,0.006,1.549,0.019,2.196c0.012,0.648,0.029,1.248,0.054,1.8
		c0.023,0.553,0.054,1.068,0.09,1.548c0.036,0.48,0.09,0.961,0.162,1.44h-2.016c-0.145-0.815-0.216-1.716-0.216-2.7h-0.072
		c-0.625,1.08-1.398,1.872-2.322,2.376c-0.924,0.504-2.094,0.756-3.51,0.756c-0.72,0-1.428-0.09-2.124-0.27
		c-0.697-0.18-1.32-0.468-1.872-0.864c-0.552-0.396-1.002-0.905-1.35-1.53c-0.348-0.623-0.522-1.379-0.522-2.268
		c0-1.271,0.324-2.28,0.972-3.024c0.648-0.743,1.445-1.301,2.394-1.674c0.948-0.371,1.956-0.611,3.024-0.72
		c1.067-0.108,2.01-0.162,2.826-0.162h2.521v-1.008c0-1.44-0.444-2.472-1.332-3.096c-0.889-0.624-2.004-0.937-3.348-0.937
		c-1.92,0-3.613,0.624-5.076,1.872l-1.26-1.476c0.792-0.769,1.775-1.351,2.952-1.746c1.176-0.396,2.304-0.595,3.384-0.595
		c2.016,0,3.624,0.475,4.824,1.423s1.8,2.478,1.8,4.59V84.72z M193.366,83.353c-0.913,0-1.795,0.06-2.646,0.18
		c-0.852,0.12-1.62,0.324-2.304,0.612c-0.684,0.287-1.23,0.672-1.638,1.151c-0.408,0.48-0.612,1.08-0.612,1.8
		c0,0.505,0.113,0.954,0.342,1.351c0.228,0.396,0.522,0.72,0.882,0.972c0.36,0.252,0.762,0.444,1.206,0.576
		c0.444,0.132,0.894,0.198,1.35,0.198c1.152,0,2.1-0.168,2.844-0.504c0.743-0.336,1.338-0.774,1.782-1.314
		c0.443-0.54,0.749-1.152,0.918-1.836c0.167-0.684,0.252-1.374,0.252-2.07v-1.115H193.366z"/>
	<path fill="#FFFFFF" d="M203.445,79.752c0-0.312-0.013-0.689-0.036-1.134c-0.024-0.444-0.042-0.894-0.054-1.35
		c-0.013-0.456-0.03-0.883-0.054-1.278c-0.024-0.396-0.036-0.702-0.036-0.918h2.16c0.023,0.624,0.041,1.224,0.054,1.8
		c0.012,0.576,0.042,0.948,0.09,1.116c0.552-0.984,1.26-1.788,2.124-2.412s1.92-0.937,3.168-0.937c0.216,0,0.426,0.019,0.63,0.055
		s0.414,0.078,0.63,0.126l-0.252,2.124c-0.288-0.096-0.563-0.145-0.828-0.145c-0.936,0-1.745,0.15-2.43,0.45
		c-0.684,0.301-1.248,0.715-1.692,1.242c-0.444,0.528-0.773,1.146-0.989,1.854c-0.216,0.709-0.324,1.471-0.324,2.286v9.072h-2.16
		V79.752z"/>
	<path fill="#FFFFFF" d="M215.433,79.752c0-0.312-0.013-0.689-0.036-1.134c-0.024-0.444-0.042-0.894-0.054-1.35
		c-0.013-0.456-0.03-0.883-0.054-1.278c-0.024-0.396-0.036-0.702-0.036-0.918h2.16c0.023,0.624,0.041,1.224,0.054,1.8
		c0.012,0.576,0.042,0.948,0.09,1.116h0.108c0.432-0.912,1.151-1.698,2.16-2.358c1.008-0.659,2.184-0.99,3.527-0.99
		c1.296,0,2.352,0.205,3.168,0.612c0.815,0.408,1.458,0.942,1.926,1.603c0.469,0.66,0.792,1.422,0.973,2.285
		c0.18,0.864,0.27,1.753,0.27,2.664v9.9h-2.16v-9.792c0-0.672-0.06-1.326-0.18-1.962s-0.33-1.206-0.63-1.71
		c-0.301-0.504-0.72-0.905-1.26-1.206c-0.54-0.3-1.242-0.45-2.106-0.45c-0.792,0-1.542,0.139-2.25,0.414
		c-0.708,0.276-1.32,0.696-1.836,1.26c-0.517,0.564-0.924,1.272-1.224,2.124c-0.301,0.853-0.45,1.854-0.45,3.006v8.316h-2.16V79.752
		z"/>
	<path fill="#FFFFFF" d="M235.269,68.485c0-0.456,0.155-0.84,0.468-1.152c0.312-0.312,0.696-0.468,1.152-0.468
		c0.455,0,0.84,0.156,1.151,0.468c0.312,0.312,0.469,0.696,0.469,1.152s-0.157,0.84-0.469,1.151
		c-0.312,0.312-0.696,0.469-1.151,0.469c-0.456,0-0.841-0.156-1.152-0.469C235.424,69.325,235.269,68.941,235.269,68.485z
		 M235.809,75.073h2.16v16.632h-2.16V75.073z"/>
	<path fill="#FFFFFF" d="M244.088,79.752c0-0.312-0.013-0.689-0.036-1.134c-0.024-0.444-0.042-0.894-0.054-1.35
		c-0.013-0.456-0.03-0.883-0.054-1.278c-0.024-0.396-0.036-0.702-0.036-0.918h2.16c0.023,0.624,0.041,1.224,0.054,1.8
		c0.012,0.576,0.042,0.948,0.09,1.116h0.108c0.432-0.912,1.151-1.698,2.16-2.358c1.008-0.659,2.184-0.99,3.527-0.99
		c1.296,0,2.352,0.205,3.168,0.612c0.815,0.408,1.458,0.942,1.926,1.603c0.469,0.66,0.792,1.422,0.973,2.285
		c0.18,0.864,0.27,1.753,0.27,2.664v9.9h-2.16v-9.792c0-0.672-0.06-1.326-0.18-1.962s-0.33-1.206-0.63-1.71
		c-0.301-0.504-0.72-0.905-1.26-1.206c-0.54-0.3-1.242-0.45-2.106-0.45c-0.792,0-1.542,0.139-2.25,0.414
		c-0.708,0.276-1.32,0.696-1.836,1.26c-0.517,0.564-0.924,1.272-1.224,2.124c-0.301,0.853-0.45,1.854-0.45,3.006v8.316h-2.16V79.752
		z"/>
	<path fill="#FFFFFF" d="M280.808,90.625c0,2.063-0.301,3.731-0.9,5.004s-1.35,2.256-2.25,2.952
		c-0.899,0.696-1.866,1.164-2.897,1.404c-1.032,0.239-1.969,0.359-2.809,0.359s-1.662-0.078-2.466-0.233
		c-0.804-0.156-1.565-0.385-2.286-0.685c-0.72-0.3-1.374-0.666-1.962-1.098s-1.098-0.924-1.529-1.476l1.691-1.584
		c0.768,1.079,1.729,1.871,2.88,2.376c1.152,0.504,2.376,0.756,3.672,0.756c1.104,0,2.034-0.145,2.79-0.433
		c0.757-0.288,1.38-0.666,1.872-1.134s0.876-0.984,1.152-1.548c0.275-0.564,0.479-1.128,0.612-1.692
		c0.131-0.563,0.21-1.098,0.233-1.602c0.024-0.504,0.036-0.912,0.036-1.224v-2.305h-0.072c-0.624,1.008-1.47,1.8-2.537,2.376
		c-1.068,0.576-2.322,0.864-3.763,0.864c-1.224,0-2.376-0.222-3.456-0.666c-1.08-0.443-2.021-1.056-2.826-1.836
		c-0.804-0.779-1.439-1.686-1.907-2.718c-0.469-1.032-0.702-2.136-0.702-3.312c0-1.176,0.233-2.279,0.702-3.312
		c0.468-1.032,1.104-1.932,1.907-2.7c0.805-0.768,1.746-1.38,2.826-1.836s2.232-0.685,3.456-0.685c1.44,0,2.694,0.288,3.763,0.864
		c1.067,0.576,1.913,1.368,2.537,2.376h0.072v-2.808h2.16V90.625z M278.72,83.172c0-0.911-0.175-1.77-0.522-2.574
		c-0.348-0.804-0.815-1.499-1.403-2.088c-0.589-0.588-1.284-1.056-2.088-1.403c-0.805-0.348-1.663-0.522-2.574-0.522
		c-0.912,0-1.771,0.175-2.574,0.522c-0.805,0.348-1.5,0.815-2.088,1.403c-0.589,0.589-1.057,1.284-1.404,2.088
		c-0.348,0.805-0.521,1.663-0.521,2.574c0,0.913,0.174,1.771,0.521,2.574c0.348,0.805,0.815,1.5,1.404,2.088
		c0.588,0.589,1.283,1.057,2.088,1.404c0.804,0.348,1.662,0.521,2.574,0.521c0.911,0,1.77-0.174,2.574-0.521
		c0.804-0.348,1.499-0.815,2.088-1.404c0.588-0.588,1.056-1.283,1.403-2.088C278.545,84.943,278.72,84.085,278.72,83.172z"/>
	<path fill="#FFFFFF" d="M317.06,87.708c-1.225,1.656-2.641,2.844-4.248,3.564c-1.608,0.72-3.349,1.08-5.221,1.08
		c-1.943,0-3.726-0.331-5.346-0.99c-1.62-0.66-3.006-1.584-4.158-2.772c-1.151-1.188-2.052-2.604-2.7-4.248
		c-0.647-1.644-0.972-3.438-0.972-5.382s0.324-3.731,0.972-5.364c0.648-1.632,1.549-3.042,2.7-4.229
		c1.152-1.188,2.538-2.118,4.158-2.79s3.402-1.008,5.346-1.008c1.729,0,3.342,0.306,4.842,0.918c1.5,0.611,2.814,1.638,3.942,3.078
		l-1.944,1.62c-0.792-1.2-1.806-2.076-3.042-2.629c-1.236-0.552-2.502-0.827-3.798-0.827c-1.655,0-3.149,0.287-4.481,0.863
		s-2.466,1.368-3.402,2.376c-0.936,1.009-1.656,2.196-2.16,3.564s-0.756,2.844-0.756,4.428s0.252,3.061,0.756,4.428
		c0.504,1.368,1.225,2.557,2.16,3.564c0.937,1.008,2.07,1.8,3.402,2.376s2.826,0.864,4.481,0.864c0.648,0,1.32-0.078,2.017-0.234
		c0.695-0.155,1.373-0.396,2.033-0.72s1.29-0.732,1.891-1.225c0.6-0.491,1.128-1.085,1.584-1.781L317.06,87.708z"/>
	<path fill="#FFFFFF" d="M335.492,88.573c-0.841,1.272-1.879,2.184-3.114,2.735c-1.236,0.553-2.599,0.828-4.086,0.828
		c-1.272,0-2.425-0.216-3.456-0.647c-1.032-0.433-1.921-1.038-2.664-1.818c-0.744-0.779-1.314-1.704-1.71-2.771
		c-0.396-1.068-0.594-2.25-0.594-3.546c0-1.248,0.203-2.4,0.611-3.456c0.408-1.057,0.984-1.975,1.729-2.754
		c0.743-0.78,1.62-1.393,2.628-1.837c1.008-0.443,2.124-0.666,3.348-0.666c1.272,0,2.395,0.223,3.366,0.666
		c0.972,0.444,1.788,1.032,2.448,1.765c0.659,0.732,1.157,1.565,1.494,2.502c0.336,0.936,0.504,1.884,0.504,2.844v1.512h-13.969
		c0,0.457,0.091,1.039,0.271,1.746c0.18,0.708,0.51,1.398,0.99,2.07c0.479,0.672,1.121,1.248,1.926,1.728
		c0.804,0.48,1.842,0.721,3.114,0.721c1.104,0,2.172-0.264,3.204-0.792c1.031-0.528,1.823-1.248,2.376-2.16L335.492,88.573z
		 M333.836,81.985c0-0.744-0.15-1.44-0.45-2.088c-0.3-0.648-0.708-1.218-1.224-1.71c-0.517-0.492-1.129-0.883-1.836-1.171
		c-0.709-0.287-1.458-0.432-2.25-0.432c-1.177,0-2.154,0.24-2.935,0.72c-0.78,0.48-1.398,1.032-1.854,1.656
		c-0.456,0.625-0.78,1.23-0.973,1.818s-0.288,0.99-0.288,1.206H333.836z"/>
	<path fill="#FFFFFF" d="M340.819,79.752c0-0.312-0.013-0.689-0.036-1.134c-0.024-0.444-0.042-0.894-0.054-1.35
		c-0.013-0.456-0.03-0.883-0.054-1.278c-0.024-0.396-0.036-0.702-0.036-0.918h2.16c0.023,0.624,0.041,1.224,0.054,1.8
		c0.012,0.576,0.042,0.948,0.09,1.116h0.108c0.432-0.912,1.151-1.698,2.16-2.358c1.008-0.659,2.184-0.99,3.527-0.99
		c1.296,0,2.352,0.205,3.168,0.612c0.815,0.408,1.458,0.942,1.926,1.603c0.469,0.66,0.792,1.422,0.973,2.285
		c0.18,0.864,0.27,1.753,0.27,2.664v9.9h-2.16v-9.792c0-0.672-0.06-1.326-0.18-1.962s-0.33-1.206-0.63-1.71
		c-0.301-0.504-0.72-0.905-1.26-1.206c-0.54-0.3-1.242-0.45-2.106-0.45c-0.792,0-1.542,0.139-2.25,0.414
		c-0.708,0.276-1.32,0.696-1.836,1.26c-0.517,0.564-0.924,1.272-1.224,2.124c-0.301,0.853-0.45,1.854-0.45,3.006v8.316h-2.16V79.752
		z"/>
	<path fill="#FFFFFF" d="M368.971,77.016h-4.752v10.837c0,0.744,0.204,1.319,0.612,1.728s0.972,0.612,1.692,0.612
		c0.407,0,0.821-0.055,1.241-0.162c0.42-0.108,0.822-0.246,1.206-0.414l0.181,1.944c-0.408,0.144-0.877,0.275-1.404,0.396
		c-0.528,0.12-0.996,0.18-1.404,0.18c-0.769,0-1.428-0.114-1.979-0.342c-0.553-0.228-0.996-0.533-1.332-0.918
		c-0.337-0.384-0.582-0.834-0.738-1.35s-0.234-1.074-0.234-1.674V77.016h-3.6v-1.943h3.6v-4.788h2.16v4.788h4.752V77.016z"/>
	<path fill="#FFFFFF" d="M387.512,88.573c-0.841,1.272-1.879,2.184-3.114,2.735c-1.236,0.553-2.599,0.828-4.086,0.828
		c-1.272,0-2.425-0.216-3.456-0.647c-1.032-0.433-1.921-1.038-2.664-1.818c-0.744-0.779-1.314-1.704-1.71-2.771
		c-0.396-1.068-0.594-2.25-0.594-3.546c0-1.248,0.203-2.4,0.611-3.456c0.408-1.057,0.984-1.975,1.729-2.754
		c0.743-0.78,1.62-1.393,2.628-1.837c1.008-0.443,2.124-0.666,3.348-0.666c1.272,0,2.395,0.223,3.366,0.666
		c0.972,0.444,1.788,1.032,2.448,1.765c0.659,0.732,1.157,1.565,1.494,2.502c0.336,0.936,0.504,1.884,0.504,2.844v1.512h-13.969
		c0,0.457,0.091,1.039,0.271,1.746c0.18,0.708,0.51,1.398,0.99,2.07c0.479,0.672,1.121,1.248,1.926,1.728
		c0.804,0.48,1.842,0.721,3.114,0.721c1.104,0,2.172-0.264,3.204-0.792c1.031-0.528,1.823-1.248,2.376-2.16L387.512,88.573z
		 M385.855,81.985c0-0.744-0.15-1.44-0.45-2.088c-0.3-0.648-0.708-1.218-1.224-1.71c-0.517-0.492-1.129-0.883-1.836-1.171
		c-0.709-0.287-1.458-0.432-2.25-0.432c-1.177,0-2.154,0.24-2.935,0.72c-0.78,0.48-1.398,1.032-1.854,1.656
		c-0.456,0.625-0.78,1.23-0.973,1.818s-0.288,0.99-0.288,1.206H385.855z"/>
	<path fill="#FFFFFF" d="M392.839,79.752c0-0.312-0.013-0.689-0.036-1.134c-0.024-0.444-0.042-0.894-0.054-1.35
		c-0.013-0.456-0.03-0.883-0.054-1.278c-0.024-0.396-0.036-0.702-0.036-0.918h2.16c0.023,0.624,0.041,1.224,0.054,1.8
		c0.012,0.576,0.042,0.948,0.09,1.116c0.552-0.984,1.26-1.788,2.124-2.412s1.92-0.937,3.168-0.937c0.216,0,0.426,0.019,0.63,0.055
		s0.414,0.078,0.63,0.126l-0.252,2.124c-0.288-0.096-0.563-0.145-0.828-0.145c-0.936,0-1.745,0.15-2.43,0.45
		c-0.684,0.301-1.248,0.715-1.692,1.242c-0.444,0.528-0.773,1.146-0.989,1.854c-0.216,0.709-0.324,1.471-0.324,2.286v9.072h-2.16
		V79.752z"/>
</g>
<g>
</g>
<g>
</g>
<g>
</g>
<g>
</g>
<g>
</g>
<g>
</g>
</svg>
